<svg width="91" height="91" viewBox="0 0 91 91" fill="none" xmlns="http://www.w3.org/2000/svg">
<path d="M86.1183 49.0047C85.4039 56.7355 82.5025 64.103 77.7537 70.2451C73.0049 76.3871 66.605 81.0497 59.303 83.6873C52.0009 86.3248 44.0987 86.8282 36.5211 85.1386C28.9434 83.4489 22.0036 79.6361 16.5138 74.1463C11.0239 68.6565 7.21113 61.7167 5.52149 54.139C3.83184 46.5613 4.33524 38.6591 6.97279 31.3571C9.61033 24.0551 14.2729 17.6552 20.415 12.9064C26.5571 8.15755 33.9246 5.25617 41.6554 4.54174C37.1292 10.6651 34.9512 18.2097 35.5175 25.8032C36.0838 33.3967 39.3567 40.5347 44.741 45.919C50.1253 51.3034 57.2634 54.5763 64.8569 55.1426C72.4504 55.7088 79.9949 53.5308 86.1183 49.0047Z" stroke="#FEFAF9" stroke-width="9.08333" stroke-linecap="round" stroke-linejoin="round"/>
</svg>
